# xmcd
#
# Track frame offsets:
#	150
#	11463
#	16683
#	31767
#	43054
#	54077
#	68350
#	83566
#	95038
#	106188
#	118704
#	132092
#	144304
#	159220
#	171887
#	188523
#	200872
#	211738
#	220884
#	231509
#	246311
#	260629
#	277147
#	291504
#	304852
#	316657
#	331490
# Disc length: 4568 seconds
# Revision: 1
# Processed by: cddbd v1.5.1PL0 Copyright (c) Steve Scherf et al.
#
# Submitted via: libkcddb 0.21
#
DISCID=7911d61b
DTITLE=Le Fou Chantant - Charles Trenet
DYEAR=1900
DGENRE=Chanson
TTITLE0=A la porte du garage
TTITLE1=Au revoir mes amis
TTITLE2=Bonsoir jolie madame
TTITLE3=Boum
TTITLE4=Débit de l'eau, débit de lait
TTITLE5=Douce France
TTITLE6=Fidèle
TTITLE7=Fleur bleue
TTITLE8=Je Chante
TTITLE9=La chance aux chansons
TTITLE10=La java du diable
TTITLE11=L'âme des poètes
TTITLE12=La mer
TTITLE13=La romance de Paris
TTITLE14=Le jardin extraordinaire
TTITLE15=Le piano de la plage
TTITLE16=Le soleil a rendez-vous avec la lune
TTITLE17=Les relations mondaines
TTITLE18=L'horrible tango
TTITLE19=Ménilmontant
TTITLE20=Mes jeunes années
TTITLE21=Moi j'aime le music hall
TTITLE22=Que reste-t-il de nos amours ?
TTITLE23=Revoir Paris
TTITLE24=Route nationale 7
TTITLE25=Vous qui passez sans me voir
TTITLE26=Y'a d'la joie
EXTD=
EXTT0=
EXTT1=
EXTT2=
EXTT3=
EXTT4=
EXTT5=
EXTT6=
EXTT7=
EXTT8=
EXTT9=
EXTT10=
EXTT11=
EXTT12=
EXTT13=
EXTT14=
EXTT15=
EXTT16=
EXTT17=
EXTT18=
EXTT19=
EXTT20=
EXTT21=
EXTT22=
EXTT23=
EXTT24=
EXTT25=
EXTT26=
PLAYORDER=
